<svg xmlns="http://www.w3.org/2000/svg" width="51" height="51" viewBox="0 0 51 51"><g><g><path d="M50.75 6.551L39.557 17.744a3.817 3.817 0 0 0 3.793 3.505c.072.005.144.02.213.043a.819.819 0 0 1 .212-.043h6.375a.842.842 0 0 1 .378.099c.172.088.31.23.393.403.004.007.01.013.013.02l.001.003a.838.838 0 0 1 .059.295c0 .01.006.02.006.03v5.1c0 .226-.09.442-.25.601l-5.099 5.1-16.986 17.835-.008.006a.85.85 0 0 1-.243.17c-.011.005-.02.015-.03.02a.844.844 0 0 1-.334.069H.85a.85.85 0 0 1-.85-.85v-5.1a.863.863 0 0 1 .25-.602l10.8-10.8v-.924A3.83 3.83 0 0 0 7.225 28.9H.85a.85.85 0 0 1-.85-.85v-5.1c0-.018.01-.034.01-.052a.846.846 0 0 1 .237-.547l.002-.002 22.1-22.1A.85.85 0 0 1 22.95 0h27.2a.833.833 0 0 1 .378.098.836.836 0 0 1 .177.12.836.836 0 0 1 .217.284c.003.007.009.012.012.02l.001.002a.84.84 0 0 1 .059.295c0 .01.006.02.006.03v5.1a.862.862 0 0 1-.25.602zM2.902 22.1h24.796l20.4-20.4H23.302zm0 22.1h4.323a3.83 3.83 0 0 0 3.825-3.826v-4.322zM27.2 49.3v-3.4h-5.525a5.531 5.531 0 0 1-5.525-5.526v-7.65a5.531 5.531 0 0 1 5.525-5.524H27.2v-3.4H1.7v3.4h5.525a5.531 5.531 0 0 1 5.525 5.524v7.65A5.531 5.531 0 0 1 7.225 45.9H1.7v3.4zm22.1-22.452V24.15l-3.649 3.65L28.9 45.388v2.635l15.534-16.31 4.866-4.866zm-11.183-7.664l-9.466 9.466a.857.857 0 0 1-.601.25h-6.375a3.83 3.83 0 0 0-3.825 3.824v7.65a3.83 3.83 0 0 0 3.825 3.826h6.01l16.749-17.587 3.664-3.663h-4.323a.827.827 0 0 1-.213-.043.812.812 0 0 1-.212.043 5.531 5.531 0 0 1-5.233-3.766zM49.3 5.598V2.902l-20.4 20.4v2.696l9.174-9.174zm-27.2 35.16a.85.85 0 1 1-1.7 0 .893.893 0 0 1 .247-.604.85.85 0 0 1 1.453.603zm3.366-3.8a.85.85 0 0 1-.201.826l-.85.89a.85.85 0 0 1-1.23-1.173l.85-.89a.85.85 0 0 1 1.43.347zm3.17-3.938a.85.85 0 0 1 .03 1.202l-.85.89a.85.85 0 0 1-1.231-1.173l.85-.89a.85.85 0 0 1 1.202-.029zm3.4-3.562a.85.85 0 0 1 .029 1.202l-.85.89a.85.85 0 0 1-1.23-1.174l.85-.89a.85.85 0 0 1 1.202-.028zm3.631-3.187a.85.85 0 0 1-.202.827l-.85.891a.848.848 0 0 1-1.397-.252.85.85 0 0 1 .167-.922l.85-.89a.85.85 0 0 1 1.432.346zm2.337-3.033a.88.88 0 0 1 .246.604.81.81 0 0 1-.246.595.851.851 0 0 1-.604.255.85.85 0 0 1-.604-.255.808.808 0 0 1-.246-.595.85.85 0 0 1 1.454-.604z"/></g></g></svg>