<svg xmlns="http://www.w3.org/2000/svg" width="59" height="59" viewBox="0 0 59 59"><g><g><path d="M47.2.983v56.05h10.817a.983.983 0 1 1 0 1.966H12.783a.983.983 0 0 1-.983-.983V.983c0-.544.44-.983.983-.983h33.434c.542 0 .983.439.983.983zm-1.967 56.05V1.966H13.767v55.067h1.966V4.916c0-.544.44-.983.984-.983h25.566c.543 0 .984.44.984.983v52.117zM41.3 5.9H17.7v51.133h23.6zm-1.967 11.8v.983c0 .544-.44.983-.983.983h-8.817a.991.991 0 0 1-.066 0H20.65a.983.983 0 0 1-.983-.983V17.7a9.79 9.79 0 0 1 2.295-6.308.992.992 0 0 1 .128-.15 9.813 9.813 0 0 1 7.41-3.376 9.814 9.814 0 0 1 7.425 3.392c.04.04.077.084.11.13a9.79 9.79 0 0 1 2.298 6.312zm-1.966 0a7.82 7.82 0 0 0-1.247-4.246L31.874 17.7zm-6.884-7.806v6.415l4.37-4.37a7.844 7.844 0 0 0-4.37-2.045zm-8.85 7.806h5.493l-4.246-4.247a7.82 7.82 0 0 0-1.247 4.247zm6.884-7.806c-1.677.21-3.19.95-4.37 2.045l4.37 4.37zm0 12.722v13.767c0 .544-.441.983-.984.983H20.65a.983.983 0 0 1-.983-.983V22.616c0-.544.44-.983.983-.983h6.883c.543 0 .984.44.984.983zm-1.967.984h-4.917v11.8h4.917zm12.783-.984v13.767c0 .544-.44.983-.983.983h-6.883a.983.983 0 0 1-.984-.983V22.616c0-.544.44-.983.984-.983h6.883c.543 0 .983.44.983.983zm-1.966.984H32.45v11.8h4.917zm-8.85 16.717v13.766c0 .544-.441.983-.984.983H20.65a.983.983 0 0 1-.983-.983V40.316c0-.544.44-.983.983-.983h6.883c.543 0 .984.44.984.984zm-1.967.983h-4.917v11.8h4.917zm12.783-.983v13.766c0 .544-.44.983-.983.983h-6.883a.983.983 0 0 1-.984-.983V40.316c0-.544.44-.983.984-.983h6.883c.543 0 .983.44.983.984zm-1.966.983H32.45v11.8h4.917zm-29.5 16.716c0 .544-.441.983-.984.983h-5.9a.983.983 0 1 1 0-1.966h5.9c.543 0 .984.44.984.983z"/></g></g></svg>