<svg xmlns="http://www.w3.org/2000/svg" width="81" height="55" viewBox="0 0 81 55"><g><g><path d="M75.927 18.643v34.01h3.886A1.18 1.18 0 0 1 81 53.826 1.18 1.18 0 0 1 79.813 55H1.187A1.18 1.18 0 0 1 0 53.826a1.18 1.18 0 0 1 1.187-1.173h3.886v-34.01H1.187A1.18 1.18 0 0 1 0 17.47a1.18 1.18 0 0 1 1.187-1.173h3.886V13.63H1.187A1.18 1.18 0 0 1 0 12.456a1.18 1.18 0 0 1 1.187-1.173h3.886v-4.84A3.654 3.654 0 0 1 3.805 3.68C3.805 1.65 5.475 0 7.527 0h2.537c2.052 0 3.723 1.65 3.723 3.68 0 1.1-.492 2.089-1.269 2.763v4.84h24.26v-4.84a3.654 3.654 0 0 1-1.269-2.763c0-2.03 1.67-3.68 3.723-3.68h2.536c2.053 0 3.723 1.65 3.723 3.68 0 1.1-.492 2.089-1.268 2.763v4.84h24.259v-4.84a3.654 3.654 0 0 1-1.269-2.763c0-2.03 1.67-3.68 3.723-3.68h2.537c2.052 0 3.722 1.65 3.722 3.68 0 1.1-.491 2.089-1.268 2.763v4.84h3.886A1.18 1.18 0 0 1 81 12.456a1.18 1.18 0 0 1-1.187 1.173h-3.886v2.668h3.886A1.18 1.18 0 0 1 81 17.47a1.18 1.18 0 0 1-1.187 1.173zM10.145 7.358l-.081.002H7.527c-.027 0-.054 0-.081-.002v45.295h2.7zm1.269-3.678c0-.736-.606-1.335-1.35-1.335H7.527c-.744 0-1.35.6-1.35 1.335s.606 1.334 1.35 1.334h2.537c.744 0 1.35-.599 1.35-1.334zM27.9 52.653v-34.01h-6.504v25.154a1.18 1.18 0 0 1-1.187 1.173 1.18 1.18 0 0 1-1.186-1.173V18.643h-6.505v34.01h6.505v-3.841a1.18 1.18 0 0 1 1.186-1.173 1.18 1.18 0 0 1 1.187 1.173v3.841zm8.877 0v-34.01h-6.504v34.01zm0-39.025H12.518v2.67h24.26zm2.455-8.614h2.536c.744 0 1.35-.599 1.35-1.334 0-.736-.606-1.335-1.35-1.335h-2.536c-.745 0-1.35.6-1.35 1.335s.605 1.334 1.35 1.334zm11.495 13.63h-6.504v1.334a1.18 1.18 0 0 1-1.187 1.173 1.18 1.18 0 0 1-1.186-1.173V7.358l-.082.002h-2.536c-.028 0-.055 0-.082-.002v45.295h2.7v-27.66a1.18 1.18 0 0 1 1.186-1.173 1.18 1.18 0 0 1 1.187 1.172v27.661h6.504zm17.754 0h-6.504v15.123a1.18 1.18 0 0 1-1.186 1.173 1.18 1.18 0 0 1-1.187-1.173V18.643H53.1v34.01h6.504V38.782a1.18 1.18 0 0 1 1.187-1.173 1.18 1.18 0 0 1 1.186 1.173v13.871h6.504zm0-2.347v-2.669H44.223v2.67zm5.073-8.939l-.082.002h-2.536c-.027 0-.054 0-.082-.002v45.295h2.7zm1.268-3.678c0-.736-.605-1.335-1.35-1.335h-2.536c-.744 0-1.35.6-1.35 1.335s.606 1.334 1.35 1.334h2.536c.745 0 1.35-.599 1.35-1.334z"/></g></g></svg>