<svg xmlns="http://www.w3.org/2000/svg" width="59" height="60" viewBox="0 0 59 60"><g><g><path d="M47.2 1v57h10.817c.542 0 .983.448.983 1 0 .551-.44 1-.983 1H.983A.992.992 0 0 1 0 59c0-.552.44-1 .983-1H11.8V1c0-.552.44-1 .983-1h33.434c.542 0 .983.448.983 1zm-1.967 1H13.767v56h1.966V5c0-.553.44-1 .984-1h25.566c.543 0 .984.447.984 1v53h1.966zM41.3 6H17.7v52h23.6zm-1.967 5v20.998c0 .337-.168.653-.446.838a.976.976 0 0 1-.933.077c-2.804-1.258-5.65-1.9-8.458-1.913-2.8.013-5.646.655-8.449 1.913a.971.971 0 0 1-.934-.077 1.007 1.007 0 0 1-.446-.838V10.999c0-.395.23-.754.587-.914 3.052-1.37 6.162-2.07 9.242-2.083 3.089.013 6.198.714 9.251 2.083.356.16.586.518.586.914zm-1.966.66c-2.614-1.09-5.26-1.648-7.87-1.658-2.605.01-5.25.569-7.864 1.659v18.85c2.606-.991 5.244-1.5 7.863-1.512 2.625.013 5.265.52 7.87 1.511zM39.333 36v19c0 .552-.44 1-.983 1h-17.7a.992.992 0 0 1-.983-1V36a1 1 0 0 1 .587-.915c3.052-1.37 6.162-2.07 9.242-2.084 3.089.013 6.198.714 9.251 2.084.356.16.586.518.586.915zm-1.966.66c-2.614-1.09-5.26-1.647-7.87-1.659-2.605.012-5.25.57-7.864 1.66V54h15.734z"/></g></g></svg>