<svg xmlns="http://www.w3.org/2000/svg" width="48" height="37" viewBox="0 0 48 37"><defs><clipPath id="dvtwa"><path fill="#fff" d="M3.482-.006a3.5 3.5 0 1 1 0 7 3.5 3.5 0 0 1 0-7z"/></clipPath><clipPath id="dvtwb"><path fill="#fff" d="M15.482-.006a3.5 3.5 0 1 1 0 7 3.5 3.5 0 0 1 0-7z"/></clipPath><clipPath id="dvtwc"><path fill="#fff" d="M9.482 9.994a3.5 3.5 0 1 1 0 7 3.5 3.5 0 0 1 0-7z"/></clipPath><clipPath id="dvtwd"><path fill="#fff" d="M21.482 9.994a3.5 3.5 0 1 1 0 7 3.5 3.5 0 0 1 0-7z"/></clipPath><clipPath id="dvtwe"><path fill="#fff" d="M3.482 19.994a3.5 3.5 0 1 1 0 7 3.5 3.5 0 0 1 0-7z"/></clipPath><clipPath id="dvtwf"><path fill="#fff" d="M15.482 19.994a3.5 3.5 0 1 1 0 7 3.5 3.5 0 0 1 0-7z"/></clipPath><clipPath id="dvtwg"><path fill="#fff" d="M9.482 29.994a3.5 3.5 0 1 1 0 7 3.5 3.5 0 0 1 0-7z"/></clipPath><clipPath id="dvtwh"><path fill="#fff" d="M21.482 29.994a3.5 3.5 0 1 1 0 7 3.5 3.5 0 0 1 0-7z"/></clipPath><clipPath id="dvtwi"><path fill="#fff" d="M26.482-.006a3.5 3.5 0 1 1 0 7 3.5 3.5 0 0 1 0-7z"/></clipPath><clipPath id="dvtwj"><path fill="#fff" d="M38.482-.006a3.5 3.5 0 1 1 0 7 3.5 3.5 0 0 1 0-7z"/></clipPath><clipPath id="dvtwk"><path fill="#fff" d="M32.482 9.994a3.5 3.5 0 1 1 0 7 3.5 3.5 0 0 1 0-7z"/></clipPath><clipPath id="dvtwl"><path fill="#fff" d="M44.482 9.994a3.5 3.5 0 1 1 0 7 3.5 3.5 0 0 1 0-7z"/></clipPath><clipPath id="dvtwm"><path fill="#fff" d="M26.482 19.994a3.5 3.5 0 1 1 0 7 3.5 3.5 0 0 1 0-7z"/></clipPath><clipPath id="dvtwn"><path fill="#fff" d="M38.482 19.994a3.5 3.5 0 1 1 0 7 3.5 3.5 0 0 1 0-7z"/></clipPath><clipPath id="dvtwo"><path fill="#fff" d="M32.482 29.994a3.5 3.5 0 1 1 0 7 3.5 3.5 0 0 1 0-7z"/></clipPath><clipPath id="dvtwp"><path fill="#fff" d="M44.482 29.994a3.5 3.5 0 1 1 0 7 3.5 3.5 0 0 1 0-7z"/></clipPath></defs><g><g clip-path="url(#clip-475)"><path fill="none" stroke="#0f0f0f" stroke-miterlimit="20" stroke-width="4" d="M3.482-.006a3.5 3.5 0 1 1 0 7 3.5 3.5 0 0 1 0-7z" clip-path="url(&quot;#dvtwa&quot;)"/></g><g clip-path="url(#clip-475)"><path fill="none" stroke="#0f0f0f" stroke-miterlimit="20" stroke-width="4" d="M15.482-.006a3.5 3.5 0 1 1 0 7 3.5 3.5 0 0 1 0-7z" clip-path="url(&quot;#dvtwb&quot;)"/></g><g clip-path="url(#clip-475)"><path fill="none" stroke="#0f0f0f" stroke-miterlimit="20" stroke-width="4" d="M9.482 9.994a3.5 3.5 0 1 1 0 7 3.5 3.5 0 0 1 0-7z" clip-path="url(&quot;#dvtwc&quot;)"/></g><g clip-path="url(#clip-475)"><path fill="none" stroke="#0f0f0f" stroke-miterlimit="20" stroke-width="4" d="M21.482 9.994a3.5 3.5 0 1 1 0 7 3.5 3.5 0 0 1 0-7z" clip-path="url(&quot;#dvtwd&quot;)"/></g><g clip-path="url(#clip-475)"><path fill="none" stroke="#0f0f0f" stroke-miterlimit="20" stroke-width="4" d="M3.482 19.994a3.5 3.5 0 1 1 0 7 3.5 3.5 0 0 1 0-7z" clip-path="url(&quot;#dvtwe&quot;)"/></g><g clip-path="url(#clip-475)"><path fill="none" stroke="#0f0f0f" stroke-miterlimit="20" stroke-width="4" d="M15.482 19.994a3.5 3.5 0 1 1 0 7 3.5 3.5 0 0 1 0-7z" clip-path="url(&quot;#dvtwf&quot;)"/></g><g clip-path="url(#clip-475)"><path fill="none" stroke="#0f0f0f" stroke-miterlimit="20" stroke-width="4" d="M9.482 29.994a3.5 3.5 0 1 1 0 7 3.5 3.5 0 0 1 0-7z" clip-path="url(&quot;#dvtwg&quot;)"/></g><g clip-path="url(#clip-475)"><path fill="none" stroke="#0f0f0f" stroke-miterlimit="20" stroke-width="4" d="M21.482 29.994a3.5 3.5 0 1 1 0 7 3.5 3.5 0 0 1 0-7z" clip-path="url(&quot;#dvtwh&quot;)"/></g><g clip-path="url(#clip-475)"><path fill="none" stroke="#0f0f0f" stroke-miterlimit="20" stroke-width="4" d="M26.482-.006a3.5 3.5 0 1 1 0 7 3.5 3.5 0 0 1 0-7z" clip-path="url(&quot;#dvtwi&quot;)"/></g><g clip-path="url(#clip-475)"><path fill="none" stroke="#0f0f0f" stroke-miterlimit="20" stroke-width="4" d="M38.482-.006a3.5 3.5 0 1 1 0 7 3.5 3.5 0 0 1 0-7z" clip-path="url(&quot;#dvtwj&quot;)"/></g><g clip-path="url(#clip-475)"><path fill="none" stroke="#0f0f0f" stroke-miterlimit="20" stroke-width="4" d="M32.482 9.994a3.5 3.5 0 1 1 0 7 3.5 3.5 0 0 1 0-7z" clip-path="url(&quot;#dvtwk&quot;)"/></g><g clip-path="url(#clip-475)"><path fill="none" stroke="#0f0f0f" stroke-miterlimit="20" stroke-width="4" d="M44.482 9.994a3.5 3.5 0 1 1 0 7 3.5 3.5 0 0 1 0-7z" clip-path="url(&quot;#dvtwl&quot;)"/></g><g clip-path="url(#clip-475)"><path fill="none" stroke="#0f0f0f" stroke-miterlimit="20" stroke-width="4" d="M26.482 19.994a3.5 3.5 0 1 1 0 7 3.5 3.5 0 0 1 0-7z" clip-path="url(&quot;#dvtwm&quot;)"/></g><g clip-path="url(#clip-475)"><path fill="none" stroke="#0f0f0f" stroke-miterlimit="20" stroke-width="4" d="M38.482 19.994a3.5 3.5 0 1 1 0 7 3.5 3.5 0 0 1 0-7z" clip-path="url(&quot;#dvtwn&quot;)"/></g><g clip-path="url(#clip-475)"><path fill="none" stroke="#0f0f0f" stroke-miterlimit="20" stroke-width="4" d="M32.482 29.994a3.5 3.5 0 1 1 0 7 3.5 3.5 0 0 1 0-7z" clip-path="url(&quot;#dvtwo&quot;)"/></g><g clip-path="url(#clip-475)"><path fill="none" stroke="#0f0f0f" stroke-miterlimit="20" stroke-width="4" d="M44.482 29.994a3.5 3.5 0 1 1 0 7 3.5 3.5 0 0 1 0-7z" clip-path="url(&quot;#dvtwp&quot;)"/></g></g></svg>