<svg xmlns="http://www.w3.org/2000/svg" width="50" height="45" viewBox="0 0 50 45"><g><g clip-path="url(#clip-469)"><path fill="#181818" d="M49.772 39.268l-3.23 5.055a1.47 1.47 0 0 1-1.607.628l-14.338-3.71a1.466 1.466 0 0 1-.712-.427l-4.301-4.68a8.49 8.49 0 0 1-1.168 0l-4.3 4.68a1.467 1.467 0 0 1-.713.427l-14.338 3.71a1.47 1.47 0 0 1-1.606-.628l-3.23-5.055a1.447 1.447 0 0 1 .111-1.712l9.492-11.292c.181-.216.422-.375.693-.458l6.096-1.865a8.997 8.997 0 0 1 1.104-1.991l-1.678-6.11a1.444 1.444 0 0 1 .018-.826L20.59 1.01A1.464 1.464 0 0 1 21.984 0h6.031c.637 0 1.201.408 1.395 1.01l4.525 14.004c.086.268.093.555.018.827l-1.678 6.109c.45.613.823 1.286 1.104 1.99l6.096 1.866c.27.083.512.242.693.458l9.491 11.292c.409.486.454 1.178.113 1.712zM18.987 15.491l1.155 4.201a9.06 9.06 0 0 1 9.716 0l1.154-4.2-4.065-12.583h-3.894zm2.211 19.828c-3.166-1.466-5.203-4.618-5.203-8.102v-.04l-4.193 1.282-8.527 10.147 2.085 3.262 12.884-3.333zm8.22-3.966a5.995 5.995 0 0 0 .148-8.114c-2.426-2.737-6.714-2.729-9.133 0a5.995 5.995 0 0 0-.033 7.916c2.36 2.71 6.55 2.792 9.018.198zm17.307 7.253l-8.528-10.147-4.192-1.282v.04a8.935 8.935 0 0 1-5.204 8.102l2.955 3.216 12.884 3.333z"/></g></g></svg>