<svg xmlns="http://www.w3.org/2000/svg" width="51" height="51" viewBox="0 0 51 51"><g><g><path d="M51 2.55v45.9A2.553 2.553 0 0 1 48.45 51H2.55A2.553 2.553 0 0 1 0 48.45V2.55A2.553 2.553 0 0 1 2.55 0h45.9A2.553 2.553 0 0 1 51 2.55zm-1.7 45.9V2.55a.85.85 0 0 0-.85-.85H2.55a.85.85 0 0 0-.85.85v45.9c0 .469.38.849.85.85h45.9c.47-.001.85-.381.85-.85zm-1.949-10.802a.85.85 0 0 1 .249.601v6.8a2.553 2.553 0 0 1-2.55 2.55h-6.8a.85.85 0 0 1 0-1.7h6.8c.47 0 .85-.38.85-.85v-6.8a.85.85 0 0 1 1.451-.6zM13.6 46.75c0 .469-.38.85-.85.85h-6.8a2.553 2.553 0 0 1-2.55-2.55v-6.8a.85.85 0 1 1 1.7 0v6.8c0 .469.38.85.85.85h6.8c.47 0 .85.38.85.85zm34-40.8v6.8a.85.85 0 1 1-1.7 0v-6.8a.85.85 0 0 0-.85-.85h-6.8a.85.85 0 0 1 0-1.7h6.8a2.553 2.553 0 0 1 2.55 2.55zm-43.951 7.4a.85.85 0 0 1-.25-.6v-6.8A2.553 2.553 0 0 1 5.95 3.4h6.8a.85.85 0 0 1 0 1.7H5.95a.85.85 0 0 0-.85.85v6.8a.85.85 0 0 1-1.451.6zm43.95 12.15c0 12.205-9.894 22.1-22.1 22.1-12.205 0-22.1-9.895-22.1-22.1 0-12.206 9.895-22.1 22.1-22.1 12.2.013 22.087 9.9 22.1 22.1zM21.446 5.504a4.242 4.242 0 0 0 8.11 0 20.453 20.453 0 0 0-8.11 0zm8.11 39.988a4.243 4.243 0 0 0-8.11 0 20.44 20.44 0 0 0 8.11 0zM45.9 25.5A20.395 20.395 0 0 0 31.204 5.917a5.94 5.94 0 0 1-11.408 0 20.395 20.395 0 0 0 0 39.165 5.94 5.94 0 0 1 11.408 0A20.395 20.395 0 0 0 45.9 25.499zm-6.472-12.465a18.985 18.985 0 0 1 2.51 3.56c.006.011.005.025.011.038.04.106.067.216.084.328 0 .014.008.026.008.04a.79.79 0 0 1-.022.11.838.838 0 0 1-.035.174c-.044.098-.1.19-.164.276a.814.814 0 0 1-.136.114.838.838 0 0 1-.086.072c-.017.009-.034.012-.05.02-.022.01-.042.017-.064.025a.861.861 0 0 1-.292.059H27.2a.85.85 0 0 1-.85-.85v-3.4a.85.85 0 0 1 .85-.85h11.594c.008 0 .015.004.023.004a.837.837 0 0 1 .19.039c.096.008.186.049.254.115a.85.85 0 0 1 .148.11c.006.007.014.01.02.016zm.252 3.116a17.3 17.3 0 0 0-1.281-1.7H28.05v1.7zm-15.279-3.152a.85.85 0 0 1 .249.602V17a.85.85 0 0 1-.85.85H9.808a.84.84 0 0 1-.292-.06c-.022-.008-.043-.015-.064-.024-.016-.008-.033-.011-.05-.02a.779.779 0 0 1-.086-.072.845.845 0 0 1-.136-.114 1.4 1.4 0 0 1-.164-.276.833.833 0 0 1-.035-.174.81.81 0 0 1-.022-.11c0-.015.007-.027.008-.04.017-.112.045-.223.084-.329.006-.012.005-.026.012-.038a18.995 18.995 0 0 1 2.509-3.56c.005-.006.013-.008.019-.014.086-.069.176-.133.27-.193a.828.828 0 0 1 .131-.033.833.833 0 0 1 .19-.039c.009 0 .016-.004.024-.004H23.8a.85.85 0 0 1 .601.248zM22.95 14.45H12.6c-.46.54-.888 1.107-1.28 1.7h11.63zm1.451 5.348a.85.85 0 0 1 .25.601v3.4a.85.85 0 0 1-.85.85H7.734c-.027.001-.053 0-.08-.004a.807.807 0 0 1-.119-.036.84.84 0 0 1-.167-.05.815.815 0 0 1-.13-.088.56.56 0 0 1-.217-.236.813.813 0 0 1-.078-.144.84.84 0 0 1-.033-.165.809.809 0 0 1-.026-.126c0-.015.008-.026.008-.04 0-.014-.005-.026-.004-.04.112-1.21.345-2.405.696-3.568.004-.014.016-.024.02-.038a.822.822 0 0 1 .086-.159c.1-.189.28-.322.49-.362a.825.825 0 0 1 .174-.035c.015 0 .028-.008.043-.008H23.8c.225 0 .442.09.601.248zM22.95 21.25H9.06c-.145.56-.26 1.127-.346 1.7H22.95zm4.25-1.7h15.402c.016 0 .028.008.044.008a.823.823 0 0 1 .167.034c.211.04.394.173.495.362.035.05.064.104.086.16.006.014.017.024.021.038.351 1.163.585 2.358.696 3.568.001.014-.005.026-.004.04 0 .014.008.025.008.04a.81.81 0 0 1-.026.126.82.82 0 0 1-.033.166.809.809 0 0 1-.078.143.559.559 0 0 1-.217.236.777.777 0 0 1-.13.088.853.853 0 0 1-.167.05.784.784 0 0 1-.12.036.582.582 0 0 1-.079.004H27.2a.85.85 0 0 1-.85-.85v-3.4a.85.85 0 0 1 .85-.85zm.85 3.4h14.235a16.296 16.296 0 0 0-.347-1.7H28.05zm-3.649 3.648a.85.85 0 0 1 .249.602v3.4a.85.85 0 0 1-.85.85H8.397a.844.844 0 0 1-.266-.044.787.787 0 0 1-.104-.054.846.846 0 0 1-.133-.069.857.857 0 0 1-.087-.087.854.854 0 0 1-.1-.103.85.85 0 0 1-.122-.246 18.085 18.085 0 0 1-.696-3.568.842.842 0 0 1 .04-.342c.008-.026.027-.047.038-.072a.846.846 0 0 1 .13-.22c.004-.006.005-.012.01-.017a.833.833 0 0 1 .085-.062.821.821 0 0 1 .173-.125.807.807 0 0 1 .149-.044.789.789 0 0 1 .141-.043c.015-.002.028.004.043.003.013 0 .024-.008.037-.008H23.8c.225 0 .442.09.601.25zM22.95 28.05H8.715c.017.112.03.225.048.336a16.079 16.079 0 0 0 .298 1.364H22.95zm21.165-.85c0 .014-.007.025-.008.04 0 .013.006.025.004.04a18.07 18.07 0 0 1-.696 3.567c-.005.016-.016.029-.022.044a.802.802 0 0 1-.05.103.798.798 0 0 1-.351.35.829.829 0 0 1-.09.045.835.835 0 0 1-.3.06H27.2a.85.85 0 0 1-.85-.85v-3.4a.85.85 0 0 1 .85-.85h16.065c.014 0 .025.007.038.008.015.001.027-.005.042-.003.04.008.08.02.119.035a.842.842 0 0 1 .167.051c.046.025.09.054.13.088a.561.561 0 0 1 .217.236.82.82 0 0 1 .078.143c.017.054.028.11.033.166a.82.82 0 0 1 .026.127zm-1.83.85H28.05v1.7h13.888c.146-.56.262-1.128.347-1.7zm-17.884 5.348a.85.85 0 0 1 .249.602v3.4a.85.85 0 0 1-.85.85H12.206a.846.846 0 0 1-.336-.07c-.021-.01-.038-.029-.058-.04a.845.845 0 0 1-.222-.16c-.005-.007-.013-.009-.019-.014a18.997 18.997 0 0 1-2.508-3.56c-.007-.012-.006-.026-.012-.038a1.686 1.686 0 0 1-.084-.328c0-.014-.008-.026-.008-.04a.809.809 0 0 1 .022-.111.829.829 0 0 1 .035-.174 1.39 1.39 0 0 1 .164-.275.806.806 0 0 1 .136-.115.777.777 0 0 1 .086-.072c.013-.007.027-.006.039-.012.107-.039.217-.067.329-.083.014-.001.025-.008.039-.008h13.99a.85.85 0 0 1 .602.248zM22.95 34.85H11.32c.392.593.82 1.16 1.28 1.7h10.35zm19.069-.96c.01.036.017.073.022.11 0 .015-.007.027-.008.041a1.692 1.692 0 0 1-.084.328c-.006.012-.005.026-.012.038a19.003 19.003 0 0 1-2.509 3.56c-.005.006-.013.007-.018.013a.853.853 0 0 1-.224.163c-.02.01-.036.029-.056.038a.847.847 0 0 1-.336.07H27.2a.85.85 0 0 1-.85-.85V34a.85.85 0 0 1 .85-.85h13.99c.015 0 .026.007.04.008.112.016.222.044.329.083.012.006.026.005.039.012.03.022.059.046.086.072.049.033.094.071.135.114.066.086.12.178.165.276.017.057.03.115.035.174zm-2.339.96H28.05v1.7h10.349c.461-.54.89-1.107 1.281-1.7z"/></g></g></svg>