<svg xmlns="http://www.w3.org/2000/svg" width="52" height="52" viewBox="0 0 52 52"><g><g clip-path="url(#clip-463)"><path d="M52 4.333v5.2a4.338 4.338 0 0 1-4.333 4.333h-31.2a2.603 2.603 0 0 0-2.6 2.6v31.2A4.339 4.339 0 0 1 9.533 52h-5.2A4.339 4.339 0 0 1 0 47.666v-41.6A6.073 6.073 0 0 1 6.067 0h41.6A4.338 4.338 0 0 1 52 4.333zm-1.733 0a2.603 2.603 0 0 0-2.6-2.6h-41.6a4.338 4.338 0 0 0-4.334 4.333v41.6a2.603 2.603 0 0 0 2.6 2.6h5.2a2.603 2.603 0 0 0 2.6-2.6v-31.2a4.339 4.339 0 0 1 4.334-4.333h31.2a2.603 2.603 0 0 0 2.6-2.6zm-1.734 2.6a3.467 3.467 0 1 1-6.933 0 3.467 3.467 0 0 1 6.933 0zm-1.733 0a1.733 1.733 0 1 0-3.467 0 1.733 1.733 0 0 0 3.467 0zm-36.4 0a3.467 3.467 0 1 1-6.933 0 3.467 3.467 0 0 1 6.933 0zm-1.733 0a1.733 1.733 0 1 0-3.467 0 1.733 1.733 0 0 0 3.467 0zM10.4 26a3.467 3.467 0 1 1-6.933 0 3.467 3.467 0 0 1 6.933 0zm-1.733 0A1.733 1.733 0 1 0 5.2 26a1.733 1.733 0 0 0 3.467 0zM10.4 45.066a3.467 3.467 0 1 1-6.933 0 3.467 3.467 0 0 1 6.933 0zm-1.733 0a1.734 1.734 0 1 0-3.468 0 1.734 1.734 0 0 0 3.468 0zm20.8-38.133a3.467 3.467 0 1 1-6.934 0 3.467 3.467 0 0 1 6.934 0zm-1.734 0a1.733 1.733 0 1 0-3.467 0 1.733 1.733 0 0 0 3.467 0z"/></g></g></svg>