<svg xmlns="http://www.w3.org/2000/svg" width="60" height="57" viewBox="0 0 60 57"><g><g><path d="M48.104 13.532l-5.673 9.636c-.193.274-.515.48-.838.48h-.257l-10.573-2.735c-.45-.068-.709-.478-.773-.888a.98.98 0 0 1 .516-1.026l1.869-1.025-2.965-5.604-6.189 8.885c-.322.478-.967.547-1.418.205l-9.476-7.45a1.66 1.66 0 0 1-.387-.751c-.064-.274 0-.616.193-.82L21.61.408a.903.903 0 0 1 .773-.41h16.76c.388 0 .71.206.903.616l5.157 12.097 1.676-.684c.452-.205.903-.068 1.16.274.259.341.323.82.065 1.23zm-19.661-3.144l-4.19-8.27h-1.354l-8.51 10.799 7.8 6.15zm16.31 4.716c-.388.068-.839-.205-1.032-.615L38.435 2.05h-11.99l3.996 7.86 4.255 8.064c.129.274.129.547.064.82-.064.274-.258.479-.515.615l-.387.206 7.155 1.845zm-18.05 25.903v12.028c0 .616-.452 1.094-1.032 1.094H10.973c-.322 0-.645-.205-.838-.478l-2.772-4.443-7.22-11.277a1.236 1.236 0 0 1 0-1.162l6.511-11.345-1.483-1.094c-.322-.273-.515-.751-.387-1.162.13-.41.452-.751.903-.751l10.766-.41c.45 0 .838.273.966.683l3.804 10.799a.986.986 0 0 1-.258 1.162c-.322.341-.774.341-1.16.136L18 33.694l-2.708 5.74 10.443.479c.516.068.967.547.967 1.094zm-13.86-1.026l3.867-8.2c.13-.274.323-.48.58-.548.258-.136.516-.068.774.069l.387.205-2.579-7.382-7.026.342c.322.342.387.82.129 1.23L2.206 37.316 8.91 47.84zm11.796 2.05l-10.314-.478-4.126 8.339 1.29 2.118h13.15zm35.262-4.783l-6.897 16.197a1.01 1.01 0 0 1-.903.616H39.595l-.064 1.913c0 .41-.323.82-.71.957-.064.068-.193.068-.257.068-.323 0-.645-.205-.838-.478l-5.996-9.432c-.193-.341-.193-.888.065-1.23l6.704-9.09a.98.98 0 0 1 1.096-.342c.387.137.71.479.71.957l.064 2.188 6.06-.548-5.029-9.636c-.258-.478-.064-1.162.387-1.435L52.1 21.87c.258-.205.516-.205.774-.137.257.069.45.274.58.547L59.9 36.36c.13.273.13.614 0 .888zm-3.352 3.144l-8.38.615-8.638.82c-.323 0-.58-.069-.774-.274a1.127 1.127 0 0 1-.322-.751v-.479l-4.577 6.22 3.932 6.22c.129-.411.516-.753.967-.753h12.828zm1.418-3.554l-5.866-12.645-8.51 5.058 4.964 9.568 8.832-.683z"/></g></g></svg>