<svg xmlns="http://www.w3.org/2000/svg" width="65" height="60" viewBox="0 0 65 60"><g><g><path d="M27.187 21.052h2.09v2.106h-2.09zm6.273 0h2.092v2.106H33.46zm-12.547 0h2.09v2.106h-2.09zM59.546 51.58h5.284v8.42H0v-8.42h7.763a5.24 5.24 0 0 1-.444-2.105V35.387c0-3.339 2.24-6.268 5.446-7.124l2.194-.584a3.14 3.14 0 0 1-.32-1.363V5.263C14.639 2.361 16.984 0 19.867 0h16.73c2.883 0 5.228 2.36 5.228 5.263v21.053c0 .49-.12.948-.32 1.364l2.194.584c3.206.855 5.446 3.784 5.446 7.123v5.722l2.026 1.02 2.156-6.51 2.157 6.51 6.097-3.07-3.05 6.139L65 47.368l-6.467 2.17zm-11.777-7.093l-2.557-1.93c-.667-.505-1.597-.554-2.34-.186v4.59l5.25-1.762zm-4.898 3.29v3.803h4.238l1.013-2.04zm0-7.634a4.456 4.456 0 0 1 2.896.316l-.694-1.398 1.98.997v-4.67a5.262 5.262 0 0 0-3.89-5.088l-.293-.078zM16.73 7.368h3.137V4.21h16.73v3.158h3.137V5.263c0-1.741-1.407-3.158-3.137-3.158h-16.73c-1.73 0-3.137 1.417-3.137 3.158zm19.867 2.106v2.105h3.137V9.474zM21.958 6.316v8.42h12.548v-8.42zm-5.228 5.263h3.137V9.474H16.73zm0 14.737c0 .58.469 1.052 1.046 1.052h20.913a1.05 1.05 0 0 0 1.045-1.052V13.684h-3.137v3.158h-16.73v-3.158H16.73zm13.951 3.158h-4.898l2.45 3.451zm-14.997.19v16.652h9.411c.667 0 1.288.172 1.849.451l9.055-5.064 1.004 2.022 3.777-2.535V29.663l-1.227-.326c-.277.08-.562.137-.864.137v2.105h-2.092v-2.105H33.25l-5.018 7.074-5.019-7.074h-3.346v9.473h16.73v-5.263h2.092v7.368H17.776V29.474c-.302 0-.588-.057-.865-.138zm13.594 20.862c0 .115-.025.223-.035.335l7.017-3.924-1.156-2.326-6.502 3.637c.424.658.676 1.438.676 2.278zm2.99 1.053h8.512V43.72l-2.835 1.902 1.08 2.176zM9.41 43.158h4.182V30.22l-.293.078c-2.29.61-3.89 2.703-3.89 5.088zm0 6.316c0 1.74 1.407 3.157 3.136 3.157h12.548a2.1 2.1 0 0 0 2.092-2.105 2.1 2.1 0 0 0-2.092-2.105h-9.41a2.1 2.1 0 0 1-2.092-2.105v-1.053H9.411zm43.512 8.42l-1.753-5.287-6.097 3.07.99-1.993h-18.23a4.132 4.132 0 0 1-2.738 1.053H12.547a5.152 5.152 0 0 1-3.136-1.08v.027H2.09v4.21zm.404-5.432l.654-1.973 1.077-.45 1.847.93-.923-1.856.427-1.057.484-.187 1.492-.5-1.963-.66-.439-1.085.923-1.857-1.847.93-1.02-.423-.213-.496-.499-1.503-.653 1.973-1.077.449-.195-.098 2.552 1.927L52.7 48.21l-2.354-1.778-.1.249-.484.186-1.492.501 1.963.66.439 1.085-.923 1.856 1.847-.93 1.02.424.213.496zm7.265 1.222l.989 1.993-6.097-3.07-1.752 5.288h9.006v-4.21z"/></g></g></svg>