<svg xmlns="http://www.w3.org/2000/svg" width="50" height="50" viewBox="0 0 50 50"><g><g><path d="M50 .976v16.602c0 .54-.437.977-.977.977h-15.61l-3.335 3.334v8.482c0 .343-.18.66-.474.837l-4.062 2.441a.977.977 0 0 1-1.036-.018l-3.75-2.442a.976.976 0 0 1-.444-.818v-8.482l-3.334-3.334H.976A.976.976 0 0 1 0 17.578V.976C0 .437.437 0 .976 0h48.047c.54 0 .977.437.977.976zM28.125 22.461h-5.86v7.38l2.795 1.82 3.065-1.842zm2.525-3.906H19.74l1.953 1.953h7.004zM48.047 1.953H1.953v14.648h46.094zM50 41.211v7.812c0 .54-.437.977-.977.977H.976A.977.977 0 0 1 0 49.023v-7.812c0-.54.437-.977.976-.977h3.907c.539 0 .976.437.976.977v2.93h12.305v-4.737L2.001 33.127a.997.997 0 0 1-.556-1.264l1.414-3.64a.996.996 0 0 1 1.264-.558L25 35.773l20.877-8.108a1 1 0 0 1 1.264.557l1.414 3.642a.987.987 0 0 1-.557 1.263l-16.162 6.277v4.736H44.14v-2.93c0-.539.438-.976.977-.976h3.906c.54 0 .977.437.977.977zm-25.354-1.385a.98.98 0 0 0 .707 0l21.028-8.166-.707-1.82-20.32 7.891a.977.977 0 0 1-.708 0L4.326 29.84l-.707 1.82zm1.414 1.82a2.92 2.92 0 0 1-2.12 0l-3.823-1.484v3.979h9.766v-3.979zM1.953 44.142h1.953v-1.954H1.953zm46.094 1.953H1.953v1.953h46.094zm0-3.907h-1.953v1.954h1.953zM13.075 13.075a5.354 5.354 0 0 1-3.798 1.57 5.355 5.355 0 0 1-3.798-1.57 5.377 5.377 0 0 1 0-7.596 5.377 5.377 0 0 1 7.596 0 5.377 5.377 0 0 1 0 7.596zm-.791-5.423L9.968 9.968a.997.997 0 0 1-1.381 0 .977.977 0 0 1 0-1.381l2.315-2.316a3.422 3.422 0 0 0-4.042.59 3.422 3.422 0 0 0 0 4.833 3.422 3.422 0 0 0 4.834 0 3.423 3.423 0 0 0 .59-4.042zm13.486 5.423a5.355 5.355 0 0 1-3.797 1.57 5.354 5.354 0 0 1-3.798-1.57 5.377 5.377 0 0 1 0-7.596 5.377 5.377 0 0 1 7.595 0 5.377 5.377 0 0 1 0 7.596zM24.39 6.86a3.422 3.422 0 0 0-4.042-.59l2.315 2.317c.382.381.382 1 0 1.38-.372.373-1.019.363-1.381 0l-2.316-2.315a3.424 3.424 0 0 0 .59 4.042 3.422 3.422 0 0 0 4.833 0 3.422 3.422 0 0 0 0-4.834zm17.797-1.977v4.883a.978.978 0 0 1-.976.976.978.978 0 0 1-.977-.976V4.883c0-.538.439-.977.977-.977s.976.439.976.977zm0 8.789a.978.978 0 0 1-.976.976.978.978 0 0 1-.977-.976c0-.538.439-.977.977-.977s.976.439.976.977zm-3.906-8.79v4.884a.978.978 0 0 1-.976.976.978.978 0 0 1-.977-.976V4.883c0-.538.438-.977.977-.977.538 0 .976.439.976.977zm0 8.79a.978.978 0 0 1-.976.976.978.978 0 0 1-.977-.976c0-.538.438-.977.977-.977.538 0 .976.439.976.977zm-3.906 0a.978.978 0 0 1-.977.976.978.978 0 0 1-.976-.976c0-.538.438-.977.976-.977s.977.439.977.977zm0-8.79v4.884a.978.978 0 0 1-.977.976.978.978 0 0 1-.976-.976V4.883c0-.538.438-.977.976-.977s.977.439.977.977z"/></g></g></svg>