<svg xmlns="http://www.w3.org/2000/svg" width="56" height="56" viewBox="0 0 56 56"><g><g><path d="M56 1.615v3.77a4.852 4.852 0 0 1-4.847 4.846H38.23v7c0 .892-.723 1.615-1.615 1.615h-2.692v19.923c0 .892-.724 1.615-1.616 1.615h-2.692v14a1.615 1.615 0 0 1-3.23 0v-14h-2.693a1.615 1.615 0 0 1-1.615-1.615V18.846h-2.692a1.615 1.615 0 0 1-1.616-1.615v-7H4.846A4.852 4.852 0 0 1 0 5.384V1.615C0 .723.723 0 1.615 0h52.77C55.277 0 56 .723 56 1.615zM30.692 18.846h-5.384v18.308h5.384zM35 10.231H21v5.384h14zm17.77-7H3.23v2.153C3.23 6.275 3.956 7 4.847 7h46.308c.89 0 1.615-.725 1.615-1.616zM56 47.385v7c0 .892-.723 1.615-1.615 1.615H34.46a1.615 1.615 0 0 1-1.615-1.615v-7c0-.893.723-1.616 1.615-1.616h19.924c.892 0 1.615.723 1.615 1.616zm-3.23 5.384V49H36.076v3.77zm-29.616-5.384v7c0 .892-.723 1.615-1.616 1.615H1.615A1.615 1.615 0 0 1 0 54.385v-7c0-.893.723-1.616 1.615-1.616h19.923c.893 0 1.616.723 1.616 1.616zm-3.231 5.384V49H3.23v3.77zm22.142-18.242l-3.23 3.23a1.61 1.61 0 0 1-1.143.474 1.616 1.616 0 0 1-1.142-2.758l3.23-3.23a1.616 1.616 0 0 1 2.285 2.284zm0 6.461l-2.154 2.154a1.61 1.61 0 0 1-1.142.473 1.615 1.615 0 0 1-1.142-2.757l2.154-2.154a1.615 1.615 0 1 1 2.284 2.284zm-22.615-3.23a1.61 1.61 0 0 1-1.143.473 1.61 1.61 0 0 1-1.142-.474l-3.23-3.23a1.616 1.616 0 0 1 2.284-2.285l3.23 3.23c.631.632.631 1.655 0 2.285zm-1.077 5.384a1.61 1.61 0 0 1-1.142.473 1.61 1.61 0 0 1-1.143-.473l-2.153-2.154a1.616 1.616 0 0 1 2.284-2.284l2.154 2.154c.63.63.63 1.653 0 2.284z"/></g></g></svg>