<svg xmlns="http://www.w3.org/2000/svg" width="21" height="22" viewBox="0 0 21 22"><g><g><path d="M20.804 12.963a1.915 1.915 0 0 1-.82 2.536l-1.642.876a.645.645 0 0 0-.333.46l-.321 1.841a1.901 1.901 0 0 1-2.146 1.568l-1.84-.262a.64.64 0 0 0-.54.176l-1.336 1.3a1.898 1.898 0 0 1-2.652 0l-1.336-1.3a.64.64 0 0 0-.54-.176l-1.84.262a1.902 1.902 0 0 1-2.146-1.567l-.32-1.841a.645.645 0 0 0-.334-.46l-1.642-.877a1.914 1.914 0 0 1-.82-2.536l.817-1.678a.647.647 0 0 0 0-.57L.196 9.036a1.915 1.915 0 0 1 .82-2.536l1.642-.876a.645.645 0 0 0 .333-.46l.321-1.841a1.9 1.9 0 0 1 2.146-1.568l1.84.262a.64.64 0 0 0 .54-.176l1.336-1.3a1.892 1.892 0 0 1 2.652 0l1.336 1.3a.64.64 0 0 0 .54.176l1.84-.262a1.901 1.901 0 0 1 2.146 1.568l.32 1.84a.645.645 0 0 0 .334.461l1.642.876a1.915 1.915 0 0 1 .82 2.536l-.817 1.679a.648.648 0 0 0 0 .57zm-1.135.557l-.816-1.679a1.915 1.915 0 0 1 0-1.684l.816-1.678a.648.648 0 0 0-.277-.858l-1.642-.876a1.905 1.905 0 0 1-.985-1.363l-.32-1.84a.643.643 0 0 0-.727-.53l-1.84.261a1.888 1.888 0 0 1-1.594-.52l-1.335-1.3a.64.64 0 0 0-.898 0l-1.336 1.3a1.889 1.889 0 0 1-1.593.52l-1.84-.261a.643.643 0 0 0-.727.53l-.32 1.84a1.905 1.905 0 0 1-.986 1.363l-1.641.876a.648.648 0 0 0-.278.858l.817 1.678c.26.535.26 1.15 0 1.685L1.33 13.52a.648.648 0 0 0 .278.858l1.641.876c.524.28.883.776.985 1.363l.321 1.84c.061.347.38.58.727.53l1.84-.261a1.89 1.89 0 0 1 1.594.52l1.335 1.3a.64.64 0 0 0 .898 0l1.336-1.3a1.889 1.889 0 0 1 1.593-.52l1.84.262a.644.644 0 0 0 .726-.53l.321-1.841a1.905 1.905 0 0 1 .985-1.363l1.642-.876a.648.648 0 0 0 .277-.858zm-4.558-6.259l-8.33 8.374a.626.626 0 0 1-.893 0 .637.637 0 0 1 0-.897l8.33-8.374a.63.63 0 0 1 .893 0 .637.637 0 0 1 0 .897zm-4.821.355a2.323 2.323 0 0 1-2.315 2.326 2.323 2.323 0 0 1-2.314-2.326A2.323 2.323 0 0 1 7.975 5.29a2.323 2.323 0 0 1 2.315 2.326zm-1.263 0c0-.583-.472-1.057-1.052-1.057-.58 0-1.051.474-1.051 1.057s.471 1.057 1.051 1.057S9.027 8.2 9.027 7.616zm6.312 6.767a2.323 2.323 0 0 1-2.315 2.327 2.323 2.323 0 0 1-2.314-2.327 2.323 2.323 0 0 1 2.314-2.326 2.323 2.323 0 0 1 2.315 2.326zm-1.263 0c0-.583-.472-1.057-1.052-1.057-.58 0-1.052.474-1.052 1.057s.472 1.058 1.052 1.058c.58 0 1.052-.475 1.052-1.058z"/></g></g></svg>