<svg xmlns="http://www.w3.org/2000/svg" width="46" height="47" viewBox="0 0 46 47"><g><g><path fill="#ff1c23" d="M23 .411c12.702 0 23 10.298 23 23 0 12.703-10.298 23-23 23-12.703 0-23-10.297-23-23 0-12.702 10.297-23 23-23z"/></g><g><path fill="#fff" d="M31 21.734a7.91 7.91 0 0 1-1.058 3.963l-5.802 9.99a.621.621 0 0 1-.53.313h-.006a.62.62 0 0 1-.531-.305l-5.954-9.894A7.898 7.898 0 0 1 16 21.734C16 17.47 19.364 14 23.5 14c4.135 0 7.5 3.47 7.5 7.734zm-1.246 0c0-3.554-2.808-6.454-6.254-6.454-3.446 0-6.258 2.9-6.258 6.454 0 1.201.33 2.373.94 3.388l5.413 8.995 5.274-9.082a6.591 6.591 0 0 0 .885-3.3zm-2.504 0c0 2.096-1.63 3.867-3.75 3.867-2.095 0-3.75-1.748-3.75-3.867 0-2.132 1.682-3.867 3.75-3.867s3.75 1.735 3.75 3.867zm-1.246 0c0-1.421-1.126-2.586-2.504-2.586-1.379 0-2.508 1.165-2.508 2.586 0 1.425 1.122 2.587 2.508 2.587 1.408 0 2.504-1.182 2.504-2.587z"/></g></g></svg>