<svg xmlns="http://www.w3.org/2000/svg" width="46" height="47" viewBox="0 0 46 47"><g><g><path fill="#ff1c23" d="M23 .411c12.702 0 23 10.298 23 23 0 12.703-10.298 23-23 23-12.703 0-23-10.297-23-23 0-12.702 10.297-23 23-23z"/></g><g><path fill="#fff" d="M27.037 31.014c-.336.089-.64-.126-.677-.481l-.602-5.72-2.804.182a.512.512 0 0 1-.503-.29l-1.244-2.52-5.256 2.338c-.325.146-.663-.01-.754-.345-.09-.336.1-.726.425-.87l5.033-2.24-1.53-3.102c-.15-.303-.025-.715.278-.92.303-.204.67-.125.82.178l3.172 6.426 7.15-.466c.338-.022.59.256.565.621-.026.366-.32.68-.657.701L27 24.731l.577 5.479c.037.355-.205.714-.541.804zm7.595-6.827l-5.943 10.294c-.567.982-1.712 1.387-2.551.902l-14.276-8.242c-.84-.485-1.06-1.678-.494-2.66l5.943-10.294c.567-.982 1.712-1.387 2.55-.902l14.277 8.242c.84.485 1.06 1.678.494 2.66zm-1.015-.586c.189-.327.115-.725-.165-.886l-14.276-8.243c-.28-.161-.661-.026-.85.301l-5.943 10.294c-.189.327-.115.725.165.887l14.276 8.241c.28.162.66.027.85-.3z"/></g></g></svg>