<svg xmlns="http://www.w3.org/2000/svg" width="110" height="110" viewBox="0 0 110 110"><g><g><path fill="#ff1d24" d="M55.014-.003c30.375 0 55 24.624 55 55s-24.625 55-55 55c-30.376 0-55-24.624-55-55s24.624-55 55-55z"/></g><g><path fill="#fff" d="M83 64.82v4.224c0 .368-.223.7-.566.844l-2.577 1.073-.955 2.28 1.056 2.567a.91.91 0 0 1-.203.993l-3.022 2.989a.935.935 0 0 1-1.003.201l-2.596-1.045-2.306.945-1.085 2.549a.927.927 0 0 1-.855.56h-4.272a.927.927 0 0 1-.854-.561l-1.085-2.549-2.305-.944-2.596 1.044a.935.935 0 0 1-1.005-.2l-3.022-2.987a.909.909 0 0 1-.203-.993l1.056-2.567-.955-2.28-2.577-1.073a.916.916 0 0 1-.567-.845V64.82c0-.37.224-.702.568-.845l2.576-1.073.955-2.28-1.056-2.566a.909.909 0 0 1 .203-.993l3.021-2.988a.935.935 0 0 1 1.005-.2l2.596 1.044 2.305-.945 1.085-2.546a.927.927 0 0 1 .854-.562h4.273c.373 0 .71.221.855.561l1.083 2.547 2.306.945 2.596-1.044a.935.935 0 0 1 1.005.2l3.021 2.987a.91.91 0 0 1 .203.993L78.9 60.623l.956 2.28 2.576 1.072a.917.917 0 0 1 .568.845zm-1.854.609l-2.358-.982a.922.922 0 0 1-.497-.494l-1.248-2.976a.907.907 0 0 1 0-.697l.968-2.351-2.15-2.126-2.381.96a.926.926 0 0 1-.704 0l-3.01-1.233a.922.922 0 0 1-.5-.49l-.994-2.334H65.23l-.993 2.333a.921.921 0 0 1-.5.491l-3.01 1.234a.924.924 0 0 1-.704 0l-2.378-.957-2.15 2.126.968 2.35a.907.907 0 0 1 0 .697l-1.248 2.977a.922.922 0 0 1-.497.494l-2.359.981v3.007l2.36.984a.922.922 0 0 1 .496.494l1.248 2.976a.901.901 0 0 1 0 .696l-.968 2.35 2.15 2.124 2.378-.956a.938.938 0 0 1 .703 0l3.011 1.232a.922.922 0 0 1 .5.492l.993 2.333h3.04l1-2.335a.922.922 0 0 1 .499-.49l3.01-1.234a.944.944 0 0 1 .704 0l2.377.957 2.146-2.122-.965-2.355a.907.907 0 0 1 0-.695l1.247-2.977a.921.921 0 0 1 .496-.494l2.36-.984zm-5.123 1.504c0 5.062-4.15 9.166-9.27 9.166-5.12 0-9.271-4.104-9.271-9.166 0-5.063 4.15-9.166 9.27-9.166 5.118.005 9.265 4.106 9.27 9.166zm-1.854 0c0-4.05-3.32-7.333-7.417-7.333-4.096 0-7.416 3.283-7.416 7.333 0 4.05 3.32 7.333 7.416 7.333 4.094-.005 7.412-3.285 7.417-7.333zm-8.344-.917h1.854v1.834h-1.854zm-3.708 0h1.854v1.834h-1.854zm7.413 0h1.854v1.834H69.53zm-2.29-26.943v2.444a.916.916 0 0 1-.502.818l-2.45 1.248-.428 1.018.84 2.599a.91.91 0 0 1-.227.926l-1.748 1.728a.934.934 0 0 1-.937.225l-2.628-.83-1.033.424-1.262 2.42a.929.929 0 0 1-.824.497h-2.475a.929.929 0 0 1-.824-.496l-1.262-2.421-1.03-.42-2.628.829a.934.934 0 0 1-.937-.225l-1.748-1.729a.91.91 0 0 1-.227-.927l.84-2.598-.429-1.02-2.448-1.25a.915.915 0 0 1-.503-.816v-2.444c0-.343.194-.658.503-.815l2.448-1.248.428-1.02-.839-2.6a.91.91 0 0 1 .227-.926l1.749-1.728a.934.934 0 0 1 .938-.224l2.624.83 1.032-.424 1.265-2.421a.928.928 0 0 1 .824-.497h2.472c.347 0 .665.192.824.497l1.262 2.421 1.033.424 2.628-.83a.934.934 0 0 1 .937.224l1.748 1.728a.91.91 0 0 1 .227.927l-.84 2.598.428 1.021 2.45 1.248a.916.916 0 0 1 .502.815zm-1.854 1.886v-1.328l-2.25-1.148a.92.92 0 0 1-.431-.463l-.687-1.641a.907.907 0 0 1-.026-.63l.77-2.383-.952-.939-2.41.762a.928.928 0 0 1-.637-.026l-1.66-.679a.923.923 0 0 1-.467-.427l-1.16-2.224h-1.343l-1.16 2.224a.923.923 0 0 1-.47.427l-1.659.68a.928.928 0 0 1-.637.025l-2.41-.762-.952.939.77 2.386a.907.907 0 0 1-.026.63l-.687 1.64a.921.921 0 0 1-.432.463l-2.249 1.146v1.33l2.25 1.146a.914.914 0 0 1 .43.464l.688 1.64c.084.2.093.424.026.63l-.77 2.384.955.937 2.41-.762a.931.931 0 0 1 .636.026l1.66.68a.917.917 0 0 1 .469.427l1.158 2.227h1.346l1.16-2.224a.924.924 0 0 1 .467-.426l1.66-.68a.936.936 0 0 1 .637-.026l2.41.762.95-.944-.771-2.384a.901.901 0 0 1 .026-.628l.687-1.641a.921.921 0 0 1 .432-.464zM50.553 59.875v1.949c0 .34-.192.652-.497.81l-2.417 1.232-.288.686.829 2.567a.91.91 0 0 1-.228.928l-1.39 1.375a.934.934 0 0 1-.939.224l-2.596-.82-.694.286-1.246 2.39a.928.928 0 0 1-.824.496h-1.965a.928.928 0 0 1-.824-.497l-1.245-2.39-.694-.284-2.596.82a.935.935 0 0 1-.943-.223l-1.39-1.375a.91.91 0 0 1-.227-.928l.829-2.567-.288-.686-2.418-1.23a.915.915 0 0 1-.502-.814v-1.95c0-.342.194-.656.502-.813l2.418-1.227.288-.685-.83-2.567a.91.91 0 0 1 .232-.932L32 52.275a.935.935 0 0 1 .94-.224l2.589.818.693-.284 1.247-2.39a.929.929 0 0 1 .823-.498h1.965c.348 0 .666.192.824.497l1.247 2.39.694.285 2.596-.82a.934.934 0 0 1 .938.225l1.39 1.375a.91.91 0 0 1 .228.928l-.828 2.566.288.686 2.417 1.232a.915.915 0 0 1 .502.814zM48.7 61.263v-.829l-2.23-1.126a.91.91 0 0 1-.432-.464l-.546-1.307a.907.907 0 0 1-.027-.63l.76-2.35-.593-.587-2.378.752a.937.937 0 0 1-.639-.026l-1.32-.542a.923.923 0 0 1-.464-.427l-1.143-2.192h-.834l-1.143 2.192a.922.922 0 0 1-.464.427l-1.32.542a.932.932 0 0 1-.639.026l-2.377-.752-.594.587.76 2.35a.9.9 0 0 1-.025.631l-.548 1.307a.92.92 0 0 1-.432.463l-2.217 1.13v.825l2.22 1.13a.92.92 0 0 1 .432.463l.548 1.305c.084.2.094.425.026.632l-.76 2.35.593.587 2.378-.751a.922.922 0 0 1 .637.026l1.321.541c.203.082.37.233.47.426l1.142 2.193h.835l1.143-2.193a.912.912 0 0 1 .469-.426l1.32-.54a.925.925 0 0 1 .638-.027l2.378.751.593-.586-.76-2.351a.906.906 0 0 1 .027-.631l.547-1.305a.91.91 0 0 1 .43-.464zm12.596-20.968c0 3.543-2.906 6.416-6.49 6.416-3.583 0-6.489-2.873-6.489-6.416 0-3.544 2.906-6.417 6.49-6.417 3.581.005 6.484 2.875 6.489 6.417zm-1.854 0c0-2.531-2.076-4.583-4.636-4.583s-4.635 2.052-4.635 4.583c0 2.53 2.076 4.583 4.635 4.583 2.56-.003 4.633-2.053 4.636-4.583zm-7.417-.917h1.854v1.833h-1.854zm3.709 0h1.854v1.833h-1.854zm-11.821 21.47c0 2.531-2.076 4.584-4.635 4.584-2.56 0-4.636-2.052-4.636-4.584 0-2.53 2.076-4.583 4.636-4.583 2.558.003 4.632 2.053 4.635 4.583zm-1.854 0c0-1.518-1.245-2.75-2.781-2.75s-2.781 1.232-2.781 2.75c0 1.52 1.245 2.75 2.78 2.75 1.537 0 2.782-1.23 2.782-2.75zm-3.708-.916h1.854v1.833H38.35zm39.694-8.25l-1.828.302a21.07 21.07 0 0 0-6.813-12.2l1.236-1.366a22.899 22.899 0 0 1 7.405 13.263zM41.085 39.686a21.031 21.031 0 0 0-6.33 9.77l-1.777-.524a22.867 22.867 0 0 1 6.88-10.621zm9.66 36.436l-.384 1.794a23.108 23.108 0 0 1-7.988-3.322l1.026-1.527a21.258 21.258 0 0 0 7.346 3.055z"/></g></g></svg>