<svg xmlns="http://www.w3.org/2000/svg" width="43" height="44" viewBox="0 0 43 44"><defs><mask id="10qab" width="2" height="2" x="-1" y="-1"><path fill="#fff" d="M1 0h36v36H1z"/><path d="M18.993.003c9.941 0 18 8.06 18 18 0 9.941-8.059 18-18 18s-18-8.059-18-18c0-9.94 8.059-18 18-18z"/></mask><filter id="10qaa" width="68.5" height="70.3" x="-14" y="-15" filterUnits="userSpaceOnUse"><feOffset dx="2.5" dy="4.3" in="SourceGraphic" result="FeOffset1106Out"/><feGaussianBlur in="FeOffset1106Out" result="FeGaussianBlur1107Out" stdDeviation="2 2"/></filter></defs><g><g><g filter="url(#10qaa)"><path fill="none" d="M18.993.003c9.941 0 18 8.06 18 18 0 9.941-8.059 18-18 18s-18-8.059-18-18c0-9.94 8.059-18 18-18z" mask="url(&quot;#10qab&quot;)"/><path fill-opacity=".22" d="M18.993.003c9.941 0 18 8.06 18 18 0 9.941-8.059 18-18 18s-18-8.059-18-18c0-9.94 8.059-18 18-18z"/></g><path fill="#fff" d="M18.993.003c9.941 0 18 8.06 18 18 0 9.941-8.059 18-18 18s-18-8.059-18-18c0-9.94 8.059-18 18-18z"/></g><g><path fill="#191919" d="M18.533 12.19l-4.341 4.334a.651.651 0 0 0-.192.465c0 .176.068.34.192.464l.394.394a.666.666 0 0 0 .936 0l2.538-2.528v8.032c0 .362.284.648.647.648h.557c.363 0 .675-.286.675-.648V15.29l2.553 2.557a.649.649 0 0 0 .924 0l.392-.394A.65.65 0 0 0 24 16.99a.652.652 0 0 0-.193-.465l-4.34-4.333a.654.654 0 0 0-.467-.192.654.654 0 0 0-.467.192z"/></g></g></svg>