<svg xmlns="http://www.w3.org/2000/svg" width="21" height="21" viewBox="0 0 21 21"><defs><clipPath id="osbha"><path fill="#fff" d="M10.275.84c5.523 0 10 4.478 10 10 0 5.524-4.477 10-10 10s-10-4.476-10-10c0-5.522 4.477-10 10-10z"/></clipPath></defs><g><g><path fill="none" stroke="#fff" stroke-miterlimit="20" stroke-width="2" d="M10.275.84c5.523 0 10 4.478 10 10 0 5.524-4.477 10-10 10s-10-4.476-10-10c0-5.522 4.477-10 10-10z" clip-path="url(&quot;#osbha&quot;)"/></g><g><path fill="#fff" d="M13.864 10.149l-3.787-4.006a.45.45 0 0 0-.659 0l-.279.296a.513.513 0 0 0 0 .696l3.18 3.363-3.183 3.367a.503.503 0 0 0-.136.348c0 .132.048.255.136.348l.279.295a.45.45 0 0 0 .658 0l3.79-4.009a.504.504 0 0 0 .137-.349.504.504 0 0 0-.136-.35z"/></g></g></svg>