<svg xmlns="http://www.w3.org/2000/svg" width="32" height="242" viewBox="0 0 32 242"><g><g><path fill="#fff" d="M16 210.003c8.836 0 16 7.164 16 16 0 8.837-7.164 16-16 16-8.837 0-16-7.163-16-16 0-8.836 7.163-16 16-16z"/></g><g><path fill="#fff" d="M16 .003c8.836 0 16 7.164 16 16 0 8.837-7.164 16-16 16-8.837 0-16-7.163-16-16 0-8.836 7.163-16 16-16z"/></g><g><path fill="#fff" d="M16 43.003c8.836 0 16 7.164 16 16 0 8.837-7.164 16-16 16-8.837 0-16-7.163-16-16 0-8.836 7.163-16 16-16z"/></g><g><path fill="#fff" d="M16 86.003c8.836 0 16 7.164 16 16 0 8.837-7.164 16-16 16-8.837 0-16-7.163-16-16 0-8.836 7.163-16 16-16z"/></g><g><path fill="#fff" d="M16 127.003c8.836 0 16 7.164 16 16 0 8.837-7.164 16-16 16-8.837 0-16-7.163-16-16 0-8.836 7.163-16 16-16z"/></g><g><path fill="#fff" d="M16 168.003c8.836 0 16 7.164 16 16 0 8.837-7.164 16-16 16-8.837 0-16-7.163-16-16 0-8.836 7.163-16 16-16z"/></g></g></svg>