<svg xmlns="http://www.w3.org/2000/svg" width="97" height="97" viewBox="0 0 97 97"><g><g><path d="M48.496 4.01c24.024 0 43.5 19.475 43.5 43.5 0 24.023-19.476 43.5-43.5 43.5-24.025 0-43.5-19.477-43.5-43.5 0-24.025 19.475-43.5 43.5-43.5z"/></g><g><path fill="#ffde00" d="M72.573 38.114l-27.92 26.479a3.93 3.93 0 0 1-5.524-.11L24.448 49.41a3.932 3.932 0 1 1 5.634-5.488l11.974 12.295 25.105-23.809a3.932 3.932 0 1 1 5.412 5.706zM97 48.5C97 75.243 75.243 97 48.5 97S0 75.243 0 48.5 21.757 0 48.5 0 97 21.757 97 48.5zm-7.865 0c0-22.406-18.228-40.635-40.635-40.635-22.406 0-40.635 18.229-40.635 40.635 0 22.407 18.23 40.635 40.635 40.635 22.407 0 40.635-18.228 40.635-40.635z"/></g></g></svg>