<svg xmlns="http://www.w3.org/2000/svg" width="46" height="32" viewBox="0 0 46 32"><g><g><path fill="#ff1c23" d="M10.733 32c-2.276 0-4.17-1.612-4.536-3.721H.767A.756.756 0 0 1 0 27.535V3.72c0-.41.343-.744.766-.744H29.9c.424 0 .766.334.766.744v4.466h7.667c.26 0 .504.128.645.341l6.9 10.419c.08.12.122.26.122.402v8.187a.755.755 0 0 1-.767.744h-3.897c-.366 2.11-2.26 3.72-4.536 3.72s-4.17-1.61-4.536-3.72H15.269c-.366 2.11-2.26 3.72-4.536 3.72zm0-8.93c2.276 0 4.17 1.61 4.536 3.72h13.864v-1.488H16.1v-1.488h13.033V7.44H3.066V5.953h26.067V4.465h-27.6v19.349h3.833v1.488H1.533v1.488h4.664c.366-2.11 2.26-3.72 4.536-3.72zm3.067 4.465c0-1.642-1.376-2.977-3.067-2.977-1.691 0-3.067 1.335-3.067 2.977 0 1.64 1.376 2.976 3.067 2.976 1.691 0 3.067-1.335 3.067-2.976zm23-4.466c2.275 0 4.17 1.612 4.536 3.721h3.13v-1.488h-2.3v-1.488h2.3v-4.247l-.144-.219H32.967a.755.755 0 0 1-.767-.744v-6.698c0-.41.342-.744.766-.744H38.9l-.986-1.488h-7.248V26.79h1.598c.366-2.11 2.26-3.72 4.536-3.72zm3.066 4.466c0-1.642-1.375-2.977-3.066-2.977-1.692 0-3.067 1.335-3.067 2.977 0 1.64 1.375 2.976 3.067 2.976 1.691 0 3.066-1.335 3.066-2.976zm-6.133-9.675h9.603l-3.47-5.239v.03h-6.133zM9.966 26.79H11.5v1.489H9.966zm26.067 0h1.533v1.489h-1.533zM3.066 0H13.8v1.488H3.066zM0 0h1.533v1.488H0z"/></g></g></svg>