<svg xmlns="http://www.w3.org/2000/svg" width="37" height="39" viewBox="0 0 37 39"><g><g><path fill="#ff1c23" d="M36.654 22.98a3.404 3.404 0 0 1-1.445 4.496l-2.892 1.552a1.143 1.143 0 0 0-.587.818l-.566 3.262c-.315 1.816-1.976 3.037-3.782 2.779l-3.242-.464c-.35-.05-.696.063-.95.312l-2.353 2.303a3.33 3.33 0 0 1-2.337.961 3.33 3.33 0 0 1-2.337-.961l-2.354-2.303a1.122 1.122 0 0 0-.95-.312l-3.242.464a3.422 3.422 0 0 1-.482.034c-1.61 0-3.013-1.16-3.3-2.813l-.565-3.263a1.142 1.142 0 0 0-.587-.817L1.79 27.476A3.404 3.404 0 0 1 .346 22.98l1.438-2.976c.155-.32.155-.689 0-1.01L.346 16.019a3.404 3.404 0 0 1 1.444-4.496L4.683 9.97c.312-.167.526-.465.587-.817l.566-3.262c.315-1.817 1.975-3.038 3.78-2.78l3.243.464c.35.05.696-.063.95-.312L16.163.96a3.32 3.32 0 0 1 4.674 0l2.353 2.303c.254.249.6.363.95.312l3.242-.463c1.806-.259 3.467.962 3.782 2.778l.566 3.263c.06.351.275.65.587.817l2.892 1.552a3.405 3.405 0 0 1 1.445 4.496l-1.439 2.976c-.155.32-.155.69 0 1.01zm-1.998.987l-1.439-2.975a3.413 3.413 0 0 1 0-2.986l1.439-2.976c.27-.56.056-1.228-.49-1.52l-2.892-1.553a3.376 3.376 0 0 1-1.735-2.416l-.566-3.262a1.134 1.134 0 0 0-1.28-.94l-3.241.464a3.316 3.316 0 0 1-2.808-.923L19.29 2.577a1.123 1.123 0 0 0-1.581 0L15.355 4.88a3.316 3.316 0 0 1-2.807.923l-3.243-.464a1.134 1.134 0 0 0-1.28.94L7.46 9.541a3.376 3.376 0 0 1-1.735 2.416L2.832 13.51c-.545.293-.76.96-.488 1.521l1.438 2.976a3.412 3.412 0 0 1 0 2.986l-1.438 2.976c-.271.56-.057 1.228.488 1.52l2.893 1.553a3.376 3.376 0 0 1 1.735 2.416l.566 3.262a1.135 1.135 0 0 0 1.28.94l3.242-.464a3.317 3.317 0 0 1 2.808.923l2.353 2.303a1.124 1.124 0 0 0 1.581 0l2.354-2.303a3.315 3.315 0 0 1 2.808-.923l3.242.464a1.134 1.134 0 0 0 1.28-.94l.565-3.262c.18-1.04.813-1.92 1.735-2.416l2.893-1.552c.545-.293.76-.96.489-1.522zm-8.031-11.095L11.947 27.717a1.1 1.1 0 0 1-1.572 0 1.134 1.134 0 0 1 0-1.59L25.052 11.28a1.102 1.102 0 0 1 1.573 0 1.133 1.133 0 0 1 0 1.59zm-8.496.629c0 2.274-1.829 4.124-4.077 4.124s-4.077-1.85-4.077-4.124c0-2.274 1.829-4.124 4.077-4.124s4.077 1.85 4.077 4.124zm-2.224 0a1.866 1.866 0 0 0-1.853-1.875 1.866 1.866 0 0 0-1.853 1.875c0 1.033.83 1.874 1.853 1.874 1.022 0 1.853-.84 1.853-1.874zm11.12 11.997c0 2.273-1.83 4.123-4.077 4.123-2.249 0-4.078-1.85-4.078-4.123 0-2.274 1.83-4.124 4.078-4.124s4.077 1.85 4.077 4.124zm-2.224 0a1.866 1.866 0 0 0-1.853-1.875c-1.022 0-1.854.84-1.854 1.875 0 1.033.832 1.874 1.854 1.874 1.021 0 1.853-.84 1.853-1.874z"/></g></g></svg>