<svg xmlns="http://www.w3.org/2000/svg" width="41" height="41" viewBox="0 0 41 41"><g><g><path fill="#ff1c23" d="M7.046 36.996c0 .21-.085.416-.234.566a.807.807 0 0 1-.566.234.807.807 0 0 1-.566-.234.807.807 0 0 1-.235-.566.806.806 0 0 1 .8-.8c.211-.001.418.085.567.234a.806.806 0 0 1 .234.566zm30.788-21.781a.804.804 0 0 1-.801.8.805.805 0 0 1-.801-.8c0-.21.086-.417.235-.566a.807.807 0 0 1 .566-.235.806.806 0 0 1 .801.8zM41 .8V40.2a.8.8 0 0 1-.801.8H16.026a4.035 4.035 0 0 1-2.653-.993l-.952-.83a2.406 2.406 0 0 1-2.331 1.823H2.402A2.405 2.405 0 0 1 0 38.597V25.545a2.405 2.405 0 0 1 2.402-2.403h7.688c.822 0 1.55.417 1.983 1.049l3.403-3.403-3.934-14.682a.801.801 0 0 1 .566-.981l7.59-2.034V.801c0-.442.36-.8.802-.8l19.699-.002a.802.802 0 0 1 .8.801zM10.89 38.597V25.545c0-.442-.359-.801-.8-.801H7.047v9.224a.8.8 0 1 1-1.602 0v-9.224H2.402c-.442 0-.8.359-.8.8v13.053c0 .442.358.8.8.8h7.687c.442 0 .801-.358.801-.8zm6.167-18.096a.799.799 0 0 1 .134.281l.829 3.24h1.607l-3.122-11.558a.801.801 0 0 1 .566-.982 2.159 2.159 0 0 0 1.525-2.64.8.8 0 0 1 .566-.982l.537-.143V4.749l-6.403 1.716zm1.181-7.763l1.46 5.408V11.39a3.756 3.756 0 0 1-1.46 1.349zm14.087 25.54c0-.62-.503-1.122-1.122-1.122h-6.128a.8.8 0 0 1 0-1.602h8.86c.618 0 1.121-.503 1.121-1.12 0-.619-.503-1.122-1.12-1.122h-8.861a.801.801 0 0 1 0-1.601h10.573a1.122 1.122 0 0 0 0-2.243H25.075a.8.8 0 0 1 0-1.6h8.067a1.122 1.122 0 0 0 0-2.243l-15.744-.001a.801.801 0 0 1-.776-.603l-.634-2.48-3.496 3.496v11.075l1.934 1.686c.443.387 1.011.6 1.6.6h15.177c.619 0 1.122-.503 1.122-1.12zM39.398 1.6H21.301v22.422h1.564V8.082a.8.8 0 0 1 .8-.8 2.159 2.159 0 0 0 2.157-2.157.8.8 0 0 1 .8-.8h7.454a.8.8 0 0 1 .8.8c0 1.189.968 2.157 2.157 2.157a.8.8 0 0 1 .8.8v3.205a.801.801 0 0 1-1.601 0v-2.49a3.77 3.77 0 0 1-2.871-2.87h-6.024a3.77 3.77 0 0 1-2.87 2.87v15.227h4.377a3.838 3.838 0 0 1-2.327-3.525 3.837 3.837 0 0 1 3.832-3.832 3.837 3.837 0 0 1 3.833 3.832c0 1.58-.96 2.938-2.327 3.525h1.287a2.725 2.725 0 0 1 2.48 3.843h.026c.2 0 .396.022.584.064v-9.113a.801.801 0 1 1 1.602 0v10.15a2.71 2.71 0 0 1 .537 1.622c0 1.251-.85 2.308-2.002 2.625.184.366.289.78.289 1.218a2.726 2.726 0 0 1-2.723 2.723h-.251a2.705 2.705 0 0 1 0 2.242h5.714zM32.58 20.5c0-1.23-1-2.23-2.23-2.23s-2.232 1-2.232 2.23 1.001 2.231 2.231 2.231 2.231-1 2.231-2.23z"/></g></g></svg>