<svg xmlns="http://www.w3.org/2000/svg" width="16" height="20" viewBox="0 0 16 20"><g><g><path fill="#505050" d="M15.492 10.923c-.244.666-.634 1.318-1.159 1.933l-5.807 6.898a.687.687 0 0 1-1.053 0l-5.808-6.9a6.374 6.374 0 0 1-1.16-1.935c-.919-2.46-.572-5.243.93-7.442C2.946 1.267 5.339 0 8 0c2.662 0 5.055 1.268 6.564 3.477 1.503 2.199 1.85 4.982.928 7.446zm-2.065-6.65C12.179 2.446 10.2 1.398 8 1.398c-2.2 0-4.179 1.048-5.427 2.875-1.244 1.82-1.532 4.122-.772 6.156.19.518.497 1.027.914 1.515L8 18.222l5.282-6.274.003-.004c.417-.489.724-.997.912-1.51.763-2.04.474-4.34-.77-6.161zm-1.555 3.792c0 2.16-1.737 3.916-3.872 3.916s-3.872-1.756-3.872-3.916S5.865 4.15 8 4.15s3.872 1.757 3.872 3.916zm-1.383 0c0-1.388-1.116-2.517-2.49-2.517-1.372 0-2.488 1.129-2.488 2.517S6.627 10.583 8 10.583c1.373 0 2.49-1.13 2.49-2.518z"/></g></g></svg>